<svg width="20" height="18" viewBox="0 0 20 18" fill="none" xmlns="http://www.w3.org/2000/svg">
<path d="M8.1 18C7.86131 18 7.63239 17.9052 7.4636 17.7364C7.29482 17.5676 7.2 17.3387 7.2 17.1C7.2 16.8613 7.29482 16.6324 7.4636 16.4636C7.63239 16.2948 7.86131 16.2 8.1 16.2H15.6C16.2365 16.2 16.847 15.9471 17.2971 15.4971C17.7471 15.047 18 14.4365 18 13.8V4.2C18 3.56348 17.7471 2.95303 17.2971 2.50294C16.847 2.05286 16.2365 1.8 15.6 1.8H8.1C7.86131 1.8 7.63239 1.70518 7.4636 1.5364C7.29482 1.36761 7.2 1.13869 7.2 0.9C7.2 0.661305 7.29482 0.432387 7.4636 0.263604C7.63239 0.094821 7.86131 0 8.1 0H15.6C16.7139 0 17.7822 0.442499 18.5699 1.23015C19.3575 2.0178 19.8 3.08609 19.8 4.2V13.8C19.8 14.9139 19.3575 15.9822 18.5699 16.7698C17.7822 17.5575 16.7139 18 15.6 18H8.1ZM8.0892 4.4388C8.17602 4.35857 8.2778 4.29623 8.38872 4.25534C8.49963 4.21446 8.61752 4.19582 8.73564 4.2005C8.85376 4.20518 8.9698 4.23309 9.07714 4.28262C9.18447 4.33216 9.281 4.40235 9.3612 4.4892L12.9612 8.3892C13.1149 8.55549 13.2002 8.77359 13.2002 9C13.2002 9.22641 13.1149 9.44451 12.9612 9.6108L9.3612 13.5108C9.28091 13.5976 9.18432 13.6676 9.07694 13.7171C8.96957 13.7665 8.85351 13.7943 8.73539 13.7988C8.61727 13.8034 8.49941 13.7847 8.38854 13.7437C8.27767 13.7027 8.17595 13.6403 8.0892 13.56C8.00245 13.4797 7.93236 13.3831 7.88294 13.2757C7.83352 13.1684 7.80573 13.0523 7.80116 12.9342C7.79193 12.6956 7.87785 12.4632 8.04 12.288L10.2456 9.8988H0.9C0.661305 9.8988 0.432387 9.80398 0.263604 9.6352C0.0948212 9.46641 0 9.23749 0 8.9988C0 8.76011 0.0948212 8.53119 0.263604 8.3624C0.432387 8.19362 0.661305 8.0988 0.9 8.0988H10.2444L8.0388 5.7108C7.95857 5.62398 7.89623 5.5222 7.85534 5.41129C7.81446 5.30037 7.79582 5.18248 7.8005 5.06436C7.80518 4.94624 7.83309 4.8302 7.88262 4.72286C7.93216 4.61553 8.00235 4.519 8.0892 4.4388Z" fill="white"/>
</svg>
